<!--Vectorized by Wikimedia Commons Contributors 2024 - commons.wikimedia.org-->
<svg xmlns="http://www.w3.org/2000/svg" width="1010pt" height="1418pt" viewBox="0 0 1010 1418">
  <defs>
    <filter style="color-interpolation-filters:sRGB" id="a" x="0" width="1" y="0" height="1">
      <feGaussianBlur/>
    </filter>
  </defs>
  <g fill="#ffff28">
    <path d="M752.68 17.45c21.35-2.78 41.93-9.56 63.18-12.87-6.1 4.24-13.19 6.75-19.41 10.79-3.82 2.44-6.73 6.05-10.68 8.3-3.36 1.97-6.83 3.77-9.91 6.17-8.57 6.56-17.94 12-26.64 18.39-5.42 3.97-11.19 7.44-16.78 11.16-7.82 5.19-16.28 9.47-23.48 15.55-6.97 5.82-14.23 11.32-22.07 15.92-8.32 4.81-15.38 11.4-23.42 16.61-8.17 6.45-16.71 12.5-24.2 19.76-5.75 5.29-12.37 9.57-17.77 15.26-5.91 6.2-13.29 10.65-19.66 16.31-9.3 8.04-17.72 17.02-26.38 25.72-4.59 4.7-9.54 9.07-13.64 14.21a19.46 19.46 0 0 0-4.25 10.12c3.36 3.14 8.03 3.59 12.41 3.6 11.28.01 22.14 3.35 33.14 5.39 6.04 1.07 11.93 2.81 17.95 3.99 10.36 1.83 20.77 3.77 30.64 7.51 12.87 4.95 26.26 8.47 38.89 14.06 13.68 5.26 26.58 12.26 40.05 17.99 6.8 2.87 12.74 7.35 19.33 10.63 8.11 4.02 15.58 9.17 23.41 13.68 4.01 2.19 7.9 4.59 11.56 7.33 4.75 3.63 10.01 6.57 14.49 10.55 6.53 5.93 14.69 9.76 20.81 16.18 5.33 5.82 12.92 8.86 18.24 14.71 11.45 10.52 23.49 20.56 33.4 32.63 7.11 8.54 15.9 15.65 21.96 25.05 3.92 5.96 9.55 10.55 13.5 16.49 3.54 5.18 6.07 11.05 10.22 15.82 4.55 5.22 9.25 10.44 12.41 16.66 3.98 7.8 8.96 15.04 12.93 22.85 3.56 7.03 7.99 13.59 11.47 20.66 5.03 10.95 10.52 21.69 15.21 32.79 3.48 8.29 5.75 17.08 9.85 25.12 5.6 10.32 7.23 22.12 10.75 33.21 4.24 13.5 6.11 27.57 9.95 41.18 2.15 10.91 3.69 21.95 4.9 33.01.54 7.05 2.09 13.98 2.32 21.06.11 3.36 1.03 6.64 2.64 9.6v60.19c-1.53 3.57-2.77 7.29-2.98 11.21-2.21 23.44-5.59 46.81-11.49 69.63-2.08 7.22-2.74 14.75-4.98 21.93-3.07 10.8-5.74 21.74-9.75 32.24-3.15 8.21-5.14 16.79-7.91 25.12-9.61 26.92-22.57 52.46-34.79 78.25-7.08 14.96-17.29 28.09-25.91 42.15-6.78 10.68-14.61 20.66-21.96 30.95-10.64 12.05-19.68 25.5-31.22 36.76-4.97 4.78-8.47 10.8-13.06 15.91-6.24 7.09-13.21 13.48-19.79 20.23-4.63 4.7-9.22 9.47-14.38 13.6-4.78 3.86-8.82 8.54-13.63 12.37-6.65 5.32-12.66 11.39-19.47 16.51-8.37 6.28-16.14 13.3-24.72 19.3-11.15 9.78-23.68 17.76-35.71 26.37-8.91 6.57-18.42 12.26-27.68 18.29-6.12 4.28-12.56 8.05-18.89 12-8.38 5.47-17.41 9.83-25.84 15.22-6.8 4.27-13.62 8.55-20.78 12.2-9.96 5.03-19.56 10.76-29.79 15.24-9.56 4.16-18.44 9.68-27.93 13.98-9.82 4.47-19.29 9.68-29.27 13.79-8.17 2.87-15.94 6.7-23.83 10.25-11.4 4.35-22.37 9.74-33.67 14.33-5.65 2.44-11.84 3.14-17.58 5.32-8.49 3.02-16.58 7.1-25.18 9.83-11.56 3.6-22.65 8.51-34.32 11.75-10.49 3.69-21.64 5.05-32.04 9.01-8.05 2.91-16.29 5.35-24.66 7.14-20.53 4.5-40.59 10.91-61.21 14.98-12.46 3.08-25.38 3.83-37.78 7.23-9.15 2.64-18.51 4.39-27.86 6.12-8.54 1.35-16.76 4.06-25.15 6.04 6.37-5.2 13.11-9.94 20.13-14.22 6.82-4.02 13.06-8.95 19.9-12.94 16.08-9.19 29.37-22.5 45.63-31.42 8.26-4.43 15.1-10.94 22.89-16.08 8-5.76 16.52-10.77 24.28-16.84 7.82-5.86 15.4-12.06 23.77-17.13 8.97-6.94 17.41-14.57 25.57-22.44 5.16-4.96 11.81-8.02 16.94-13.02 4.83-4.87 9.49-10.05 15.38-13.67 3-1.66 3.8-5.48 6.81-7.15 6.49-4.01 11.78-9.54 17.24-14.79 7.18-7.07 14.23-14.76 17.81-24.35-4.96-1.9-9.99-3.74-15.27-4.48-14.94-2.06-29.61-5.64-44.29-9-7.55-1.81-15.26-3.05-22.63-5.53-19.55-6.42-39.45-12.03-58.13-20.78-11.78-5.08-23.64-10-34.98-16.01-13.33-7.65-26.72-15.2-39.86-23.18-8.98-5.94-17.78-12.14-26.61-18.29-9.7-7.27-19.14-14.88-28.69-22.34-9.17-7.09-16.54-16.14-25.31-23.68-4.88-4.14-8.85-9.22-13.66-13.43-4.07-3.57-7.9-7.42-11.15-11.76-8.41-11.51-18.17-21.95-26.96-33.15-6.14-8.58-11.51-17.69-17.95-26.05-7.77-9.65-13.59-20.64-19.34-31.55-4.74-8.68-9.68-17.27-13.69-26.31-4.19-9.66-10.03-18.55-13.53-28.51-2.95-8.39-6.33-16.62-8.9-25.14-2.67-8.95-6.89-17.43-8.55-26.67-1.37-7.78-4.15-15.2-5.81-22.91-1.68-7.35-3.01-14.78-4.94-22.07-3.18-10.98-3.19-22.51-5.09-33.73-1.99-11.37-1.23-22.93-1.59-34.4-.92-15.62-2.65-31.33-.72-46.94.99-8.35.59-16.8 1.49-25.16 2.09-16.23 3.78-32.52 6.43-48.67 2.69-15.52 7.09-30.7 9.69-46.24 1.3-9.65 4.79-18.78 8.04-27.9 4.54-12.7 8.38-25.68 13.94-38 2.96-7.58 6.91-14.72 9.73-22.35 2.73-7.52 7.3-14.14 10.54-21.43 3.55-7.87 7.92-15.32 11.98-22.93 3.23-5.97 7.38-11.38 10.75-17.26 2.74-4.84 6.38-9.09 9.11-13.93 2.91-5.02 5.51-10.27 9.26-14.74 4.42-5.32 8.61-10.82 12.44-16.58 4.77-7.4 11.36-13.38 16.34-20.63 4.77-6.83 10.67-12.76 15.56-19.51 5.04-6.86 11.07-12.9 17.18-18.81 9.55-9.1 18.42-18.9 28.03-27.95 4.32-4.04 9.56-7 13.58-11.38 4.67-5.06 10.23-9.16 15.25-13.85 3.29-3.05 6.93-5.7 10.66-8.18 5.77-3.83 10.15-9.36 15.94-13.15 3.61-2.33 7.05-4.9 10.24-7.77 6.22-5.58 13.56-9.69 20.13-14.81 8.76-7.14 18.36-13.12 27.88-19.16 7.28-4.73 14.12-10.15 21.76-14.3 11.18-6.34 22.13-13.09 33.03-19.91 10.92-5.63 21.26-12.34 32.38-17.6 7.62-4 14.75-8.94 22.76-12.2 6.92-2.88 13.13-7.19 20.1-9.96 4.02-1.6 8.14-2.99 12.01-4.95 10.34-5.67 21.25-10.2 32.1-14.79 3.94-1.83 7.73-4.04 11.89-5.36 10.75-3.38 20.44-9.34 31.2-12.72 19.43-6.25 37.91-15.03 57.14-21.82 11.13-2.92 21.84-7.18 32.98-10.08 15.44-5.44 31.74-8.01 47-13.99 9.38-2.55 18.94-4.44 28.4-6.68 11.53-2.05 22.73-5.56 34.27-7.53 9.2-2.65 18.5-4.93 27.98-6.35M683.91 58.7c-17.69 4.4-35.22 9.45-52.67 14.71-88.19 27.15-173.69 63.33-254.04 108.76-23.86 14.23-47.84 28.36-70.59 44.35-39.76 27.56-77.34 58.28-111.62 92.43-26.27 27-51.18 55.5-72.34 86.73-38.8 56.12-67.11 119.66-81.43 186.44-5.79 26.55-8.64 53.62-11.42 80.62-1.8 17.03-1.25 34.16-1.27 51.26.41 16.65 1.73 33.29 4.04 49.79 3.48 23.94 7.81 47.84 14.96 70.99 11.09 38.24 27.55 74.8 47.61 109.14 13.07 21.17 26.94 41.91 43.18 60.8 57.26 69.69 135.36 121.67 221.23 148.94 26.5 8.65 53.89 14.33 81.46 18.26 22.62 2.74 45.3 5.1 67.97 7.4-.29 1.39-1.28 2.43-2.27 3.41-5.48 5.19-10.25 11.05-15.33 16.61-7.76 8.89-15.81 17.52-23.6 26.39-24.85 26.58-51.82 51.1-80.11 73.96-16.1 13.75-33.5 25.84-50.34 38.63-6.04 4.66-12.72 8.56-18.31 13.74 8.32-.62 16.18-3.66 24.22-5.68 40.9-11.05 81.17-24.34 120.76-39.41 41.73-15.49 82.37-33.84 122.14-53.81 68-34.78 132.82-76.38 190.56-126.53 13.12-11.85 26.48-23.49 38.66-36.34 13.55-14.43 27.46-28.56 39.8-44.06 40-48.78 72.31-104.11 93.34-163.67 7-18.48 11.57-37.73 17.4-56.58 4.64-16.12 7.96-32.59 10.6-49.15 3.12-19.5 5.45-39.17 5.99-58.92-.37-8.61 1.03-17.2.33-25.81-.7-6.68 0-13.42-.69-20.11-1.84-32.55-7.42-64.81-15.5-96.36-20.72-76.95-60.85-148.71-116.27-206.03-7.33-7.99-15.6-15.03-23.3-22.63-6.8-6.62-14.39-12.32-21.68-18.34-9.12-7.66-18.69-14.76-28.52-21.46-28.21-19.08-58.26-35.59-89.96-48.08-40.04-17.02-82.75-27.18-125.88-32.33-20.56-2.25-41.17-4.08-61.74-6.23 10.46-11.62 20.81-23.34 31.15-35.07 25.52-29.08 53.94-55.52 83.95-79.9 6.05-5.38 12.35-10.47 18.78-15.4 16.39-12.71 32.72-25.54 49.99-37.05 2.27-1.59 4.55-3.18 6.53-5.13-1.95.03-3.89.24-5.77.72"/>
    <path d="M348.36 482.3c3.42-4.58 10.45-6.51 15.22-2.85 5.8 3.35 6.56 11.33 12.67 14.29 3.76 2.14 7.39 4.7 10.05 8.18-.8 2.85-1.55 5.7-2.2 8.59 1.95.02 3.91.09 5.87.14 1.96 1.83 3.85 3.93 6.44 4.87 3.13 1.03 6.56.47 9.7 1.48 2.98 2.25 3.81 6.12 5.63 9.21 1.53 3 4.93 4.41 6.6 7.31 1.19 3.52-.01 7.89-3.2 9.96-2.04.56-4.1-.51-6.13-.71-4.93-1.7-8.18 4.34-13.01 3.82-5.78-.63-10.68-6.07-16.76-4.22-8.79 2.97-18 4.53-27.23 5.35-1.61-.01-3.65.48-4.83-.93-2.78-2.95-4.42-6.78-7.25-9.68-2.95-3.08-7.03-5.13-9.05-9.03-2.11-4.03-4.17-8.29-8-10.97-2.73-2.55-7.49-4.52-6.95-8.95 8.35-2.98 17.53-2.19 25.82-5.41 2.24-6.79 1.84-14.68 6.61-20.45m2.54 2.63c-3.84 5.18-3.28 11.97-5.24 17.85-.55 2.19-2.86 3.11-4.77 3.81-6.57 2.11-13.49 2.66-20.29 3.6 2.76 2.68 6.07 4.76 8.56 7.74 3.04 3.5 3.88 8.46 7.33 11.67 2.95 2.7 6.46 4.87 8.76 8.23 1.54 2.24 2.92 4.59 4.75 6.62 4.72-.12 9.32-1.22 13.95-2.06 6.68-1.19 13.14-4.09 20.05-3.54 4.17.01 7.62 2.63 11.01 4.72 3.37-1.49 6.55-3.4 10.05-4.57 3.2-1.17 6.42.59 9.65.6.05-1.72-.15-3.43-.16-5.14-3.32-2.11-5.89-5.05-7.34-8.72-1.45-1.89-2.1-5.64-5.09-5.32-3.19.01-6.46-.47-9.07-2.44-3.57-2.6-7.81-3.83-11.97-5.12.23-3.97.43-7.96 1.11-11.88-3.86-2.24-8.49-3.2-11.79-6.35-3.55-3.91-4.25-10.14-9.27-12.73-3.57-2.02-8.06-.16-10.23 3.03m-93.69 28.79c2.77-1.51 5.43-3.66 8.73-3.73 9.27-.56 18.12 7.63 18.04 16.97.19 3.59-1.86 6.67-3.53 9.67-3.08 4.2 2.33 8.3 2.46 12.67.91 4.09-1.65 7.58-4.33 10.32-2.67 2.77-4.09 6.45-6.68 9.27-2.09 2.11-5.3 1.43-7.94 1.26-8.23-.99-16.32 2.88-24.54 1.11-3.97-.64-6.43-4.63-10.48-5.03-4.38-.76-9.11-.77-12.97-3.26-4.04-2.36-6.01-7.49-4.85-11.99 1.19-5.14 3.56-9.92 4.84-15.05.83-3.7 4.34-5.66 6.98-7.99 4.22-3.44 7.19-8.24 11.82-11.19 3.7-2.32 8.27-1.67 12.38-1.23 1.48-1.39 2.76-3.24 4.82-3.79 1.84.38 3.53 1.23 5.25 1.99m2.08 5.11c-2.27-.99-4.55-1.94-6.87-2.8-1.07 1.2-2.18 2.37-3.32 3.52-3.6-.68-7.41-1.69-11.01-.42-3.08.87-5.12 3.49-7.25 5.69-3.35 3.71-6.93 7.2-10.87 10.28-.5 4.71-2.5 9.03-4.56 13.23-2.32 4.24-.25 10.05 4.03 12.13 3.96 1.95 8.53 1.3 12.72 2.33 3.23 1.21 5.54 4.14 8.9 5.09 4.28 1.36 8.74.14 12.94-.89 5.09-1.39 10.41-.59 15.57-.04 1.81-3.54 3.38-7.28 6.09-10.25 1.34-1.7 3.26-3.31 3.32-5.64.09-4.34-3.2-7.83-3.44-12.08 1.2-5.03 6.22-9.09 4.95-14.61-1.54-6.88-8.88-10.85-15.54-10.7-2.44 1-3.89 3.33-5.66 5.16M482 541.32c9.27-.65 17.65-5.73 26.99-5.91 1.94-.08 4.34.58 4.91 2.7 1.45 5.09-1.42 10.26-5.05 13.68-4.3 3.94-9.17 7.69-14.92 9.1-12.42 2.35-25.4-2.81-37.53 1.73-8.41 3.12-17.37 5.77-26.44 4.44-2.68-.41-3.92-3.13-5.41-5.04 1.88-2.68 4.09-5.16 5.61-8.08.16-2.7-.71-5.35-.57-8.05.06-2.26 2.61-2.88 4.43-2.89 10.75-.27 21.57.81 32.29-.38.6-1.93.62-4.74 2.87-5.55 4.61.32 8.14 4.26 12.82 4.25m0 3.27c-4.39.25-8.22-2.25-11.79-4.45-.54 1.77-1.03 3.57-1.78 5.27-1.32.81-2.9.98-4.41 1.09-10.35.38-20.71.26-31.07.17.41 2.91 1.33 5.91.6 8.85-1.2 2.94-3.58 5.19-5.06 7.99 3.49.44 7.04.7 10.55.29 9.56-1.18 18.15-6.97 27.98-6.54 9.47-.39 19.43 3.19 28.51-.78 6.59-3.13 13.97-7.58 15.5-15.34-1.11-1.07-2.28-2.45-4-2.16-8.56.83-16.42 5.05-25.03 5.61m42 5.37c1.23-4.35 5.64-6.95 9.98-7.1 4.81-.2 10.09.14 14.14 3.05 3.95 3.19 4.52 8.67 7.51 12.56 2.02 2.25 4.92.36 6.87-.97 6.67-4.93 12.77-11.7 21.38-13.02 6.82-.14 11.97 4.93 17.35 8.37 8.93 6.14 20.1 6.55 30.22 9.48 6.2 1.56 8.15 9.09 7.2 14.67-.68 4.45-4.58 7.26-8.01 9.65-4.86 3.21-9.29 7.33-14.97 9.07-4.01 1.23-8.14 2.2-11.84 4.23-5.41 2.76-9.71 7.53-15.69 9.17-4.36 1.21-9.49 1.98-13.41-.84-4.76-3.16-6.15-9.08-8.02-14.12-1.66-5.1-3.54-10.21-6.79-14.54-3.12 1.49-6.28 3.53-9.9 3.18-5.58-.31-10.73-2.78-15.7-5.14-4.27-2.1-8.68-5.01-10.26-9.74-1.89-5.77-1.71-12.17-.06-17.96m9.52-3.29c-3.37.21-6.46 2.81-6.73 6.27-.58 5.73-1.25 12.56 3.13 17.08 4.34 4.41 10.39 6.67 16.2 8.42 5.1 1.73 9.97-1.11 14.89-2.01 2.01.67 3.21 2.54 4.29 4.24 3.71 5.98 5.1 12.96 7.52 19.48 1.35 3.72 5.01 6.95 9.18 6.42 6.05-.54 11.29-4 16.14-7.4 6.03-4.46 13.98-4.78 20.22-8.84 5.36-3.45 11.3-6.42 15.48-11.35 1.92-3.96 1.8-9.99-1.92-12.87-10.25-3.21-21.56-3.38-31-9-5.61-2.98-10.14-8.67-16.85-9.05-6.34 1.35-11.28 5.93-16.25 9.81-3.33 2.76-7.46 6.15-12.09 4.48-5.77-2.75-6.04-10.46-10.9-14.16-3.37-2.09-7.53-2.04-11.31-1.52m-354.67 26.21c4.68 1.07 10.22 1.75 13.27 5.93 2.36 3.04.77 6.94-.13 10.22-1.14 3.17 2.14 5.86 1.65 9.06-1.58 2.25-4.04 3.63-6.18 5.28-6.06 4.06-7.78 11.73-12.77 16.78-3.53-.08-7.72-2.45-8.67-6.22-1.72-5.32.66-10.92 3.58-15.33 2.77-4.28 7.25-6.94 10.67-10.63-.55-5.02-1.86-10-1.42-15.09m2.49 3.88c.4 4.79 4.7 10.85.28 14.85-5.3 4.48-11.97 8.89-12.95 16.38-.92 3.67 1.5 6.91 4.26 9.01 3.16-4.54 5.35-9.81 9.4-13.68 2.52-2.66 5.65-4.62 8.25-7.19-.93-1.35-2.09-2.64-2.45-4.28.25-3.37 1.63-6.53 2.2-9.84-2.5-2.51-5.72-4.05-8.99-5.25m303.13 4.01c7.24-2.17 13.51 2.91 19.35 6.36 3.41 2.37 8.18 4.44 8.84 9.05.29 5.87-4.32 10.52-8.74 13.71-5.3 3.58-12.33 6.15-18.6 3.79-4.5-3.05-2.45-9.48-3.99-13.99-3.05-2.8-8.07-1.87-10.9-5-2.61-2.85-2.07-7.89 1.36-9.85 3.86-2.26 8.35-3.12 12.68-4.07m-13.51 9.2c3.41 3.71 8.5 4.84 12.54 7.6 2 4.11 1.99 8.83 2.8 13.26 8.31 1.48 17-3.04 21.34-10.11 1.35-2.05 1.81-5.22-.69-6.61-5.33-3.76-10.3-8.8-16.91-10.04-6.72-.18-13.84 1.49-19.08 5.9m167.66 20.25c.48-3.4 2.93-6.57 6.42-7.2 6.68-1.2 13.58.56 19.66 3.34 7.6 3.42 14.53 9.57 23.26 9.57 11.47-1.75 22.73 2.16 33.85 4.51 15.91 4.4 32.55 8.09 46.55 17.27 8.26 6.15 7.42 17.5 9.2 26.59 3.23-2.36 6.56-6.03 11.02-4.78 6.44 1.63 7.45 9.48 8.95 14.92 3.71 1.73 7.06 4.1 10.28 6.6 4.7 3.67 11.09 2.73 16.38 4.88 4.63 2.51 5.45 9.07 3.05 13.42-3.46 7-11.01 10.3-16.06 15.91-7.24 7.75-14.98 14.99-22.96 21.98-2.58 2.17-5.31 4.27-8.45 5.59-5.23 2.15-11.33-.22-16.4 2.49-5.08 3.2-6.52 9.46-10.1 13.94-4.9 6.52-12.87 9.7-18.08 15.91-3.14 3.9-3.73 9.06-4.5 13.83-.95 6.34-3.12 12.62-7.03 17.76-1.87 2.29-4.57 4.44-7.68 4.27-4.58-.8-8.5-3.48-12.75-5.16-6.45-2.74-13.85-2.55-19.99-6.09-5.06-2.79-8.28-8.08-9.61-13.58-2.4-9.89-2.54-20.15-4.85-30.05-2.76-11.57-9.53-21.54-15.04-31.9-1.81-3.58-3.1-7.4-5.1-10.87-3.31-5.36-10.07-7.39-13.14-12.95-5.28-8.77-2.85-20.67 4.18-27.75 3.35-3.7 8.67-5.69 10.49-10.64 2.27-5.56 5.03-11.01 6.02-16.98-1.01-3.05-4.43-4.44-6.62-6.58-8.56-6.41-12.59-17.82-10.95-28.25m3.66-1c-1.66 6.32-.19 13.1 2.7 18.84 3.11 6.09 9.86 8.89 13.96 14.15 1.79 3.07.08 6.72-.89 9.79-1.68 4.55-3.11 9.24-5.51 13.48-2.73 4.6-8.19 6.47-11.43 10.62-4.33 5.44-6.58 13.17-3.88 19.84 2.08 4.93 6.97 7.6 10.72 11.09 4.17 3.59 5.73 9.06 8.33 13.73 5 9.17 10.22 18.29 13.98 28.07 3.76 10.29 4.48 21.31 5.95 32.08.7 5.01 2.24 10.23 6.08 13.77 5.01 4.93 12.45 5.21 18.84 7.11 5.21 1.24 9.71 4.4 14.88 5.72 4.02-1.1 6.19-5.07 7.77-8.6 2.97-6.56 3.44-13.83 5.41-20.67 2.73-8.42 11.61-11.82 17.65-17.39 5.69-4.94 7.32-13.08 13.42-17.65 2.99-2.51 7.1-1.76 10.7-2.16 4.02-.08 8.03-1.31 11.16-3.9 12.33-8.84 22.09-20.58 33.28-30.71 2.98-2.64 6.29-5.16 8.09-8.81 1.23-2.46 1.04-5.27 1-7.93-7.09-1.91-15.35-1.79-20.93-7.23-2.25-2.3-5.1-3.89-8.37-3.96-1.64-4.88-2.39-10.14-5.05-14.62-1.75-1.01-4.53-1.48-5.9.35-1.47 1.25-2.51 3.17-4.38 3.8-2.86-.09-5.77-1.99-6.33-4.91-1.51-5.93-.81-12.42-3.81-17.94-2.83-5.22-8.57-7.71-13.7-10.08-11.02-4.75-22.62-7.93-34.25-10.79-7.77-2.31-15.76-3.77-23.76-4.96-4.98-.84-10.02 1.04-14.96-.27-10.95-2.89-19.46-12.02-31.04-13-3.42-.56-8.1-.58-9.73 3.14m-96.33 3.77c2.39-1.93 4.84-4.29 8.06-4.55 3.09.04 6.5 1.81 7.37 4.97 1.19 4.3 1.19 8.82.93 13.25-5.23.46-10.7-.09-15.64 2.02-2.4.84-4.74 2.32-7.37 2.14-3.26-1.14-5.39-5.66-3.21-8.63 2.66-3.68 6.49-6.24 9.86-9.2m-.89 5.13c-2.68 2.36-5.37 4.93-6.63 8.36 4.08.58 7.7-1.69 11.63-2.3 2.86-.47 5.77-.53 8.66-.8-.27-4.23-.09-8.86-3.12-12.25-3.96 1.55-7.42 4.13-10.54 6.99m-52.55 26.52c26.61-5.54 56.42 6.96 70.13 30.66 7.73 12.34 10.63 27.31 9.49 41.71-2.07 20.5-14.28 39.55-31.93 50.13-25.17 15.65-60.97 11.75-81.58-9.76-9.62-9.13-15.83-21.44-18.6-34.32-1.25-6.59-1.04-13.35-.76-20.01 1.08-15.29 8.86-29.44 19.28-40.41 9.05-9.41 21.27-15.38 33.97-18m4.86 19.13c-6.78.88-13.42 2.87-19.52 5.96-3.96 1.92-6.56 5.62-8.97 9.15-2.97 4.45-6.48 8.66-8.22 13.8-2.51 7.16-2.13 14.87-1.96 22.34-.04 8.38 2.97 16.64 7.87 23.39 3.72 4.89 7.72 9.97 13.57 12.39 12.82 7.74 29.07 9.55 43.22 4.64 9.84-4.61 17.53-12.55 23.74-21.3 3.7-5.23 3.66-11.87 5.41-17.82 2.91-10.92-.08-22.52-5.71-32.02-4.58-6.03-9.69-12.08-16.6-15.5-10.04-5.15-21.74-6.38-32.83-5.03"/>
  </g>
  <path fill="#d80023" d="M683.91 58.7c1.88-.48 3.82-.69 5.77-.72-1.98 1.95-4.26 3.54-6.53 5.13-17.27 11.51-33.6 24.34-49.99 37.05-6.43 4.93-12.73 10.02-18.78 15.4-30.01 24.38-58.43 50.82-83.95 79.9-10.34 11.73-20.69 23.45-31.15 35.07 20.57 2.15 41.18 3.98 61.74 6.23 43.13 5.15 85.84 15.31 125.88 32.33 31.7 12.49 61.75 29 89.96 48.08 9.83 6.7 19.4 13.8 28.52 21.46 7.29 6.02 14.88 11.72 21.68 18.34 7.7 7.6 15.97 14.64 23.3 22.63 55.42 57.32 95.55 129.08 116.27 206.03 8.08 31.55 13.66 63.81 15.5 96.36.69 6.69-.01 13.43.69 20.11.7 8.61-.7 17.2-.33 25.81-.54 19.75-2.87 39.42-5.99 58.92-2.64 16.56-5.96 33.03-10.6 49.15-5.83 18.85-10.4 38.1-17.4 56.58-21.03 59.56-53.34 114.89-93.34 163.67-12.34 15.5-26.25 29.63-39.8 44.06-12.18 12.85-25.54 24.49-38.66 36.34-57.74 50.15-122.56 91.75-190.56 126.53-39.77 19.97-80.41 38.32-122.14 53.81-39.59 15.07-79.86 28.36-120.76 39.41-8.04 2.02-15.9 5.06-24.22 5.68 5.59-5.18 12.27-9.08 18.31-13.74 16.84-12.79 34.24-24.88 50.34-38.63 28.29-22.86 55.26-47.38 80.11-73.96 7.79-8.87 15.84-17.5 23.6-26.39 5.08-5.56 9.85-11.42 15.33-16.61.99-.98 1.98-2.02 2.27-3.41-22.67-2.3-45.35-4.66-67.97-7.4-27.57-3.93-54.96-9.61-81.46-18.26-85.87-27.27-163.97-79.25-221.23-148.94-16.24-18.89-30.11-39.63-43.18-60.8-20.06-34.34-36.52-70.9-47.61-109.14-7.15-23.15-11.48-47.05-14.96-70.99-2.31-16.5-3.63-33.14-4.04-49.79.02-17.1-.53-34.23 1.27-51.26 2.78-27 5.63-54.07 11.42-80.62 14.32-66.78 42.63-130.32 81.43-186.44 21.16-31.23 46.07-59.73 72.34-86.73 34.28-34.15 71.86-64.87 111.62-92.43 22.75-15.99 46.73-30.12 70.59-44.35 80.35-45.43 165.85-81.61 254.04-108.76 17.45-5.26 34.98-10.31 52.67-14.71M348.36 482.3c-4.77 5.77-4.37 13.66-6.61 20.45-8.29 3.22-17.47 2.43-25.82 5.41-.54 4.43 4.22 6.4 6.95 8.95 3.83 2.68 5.89 6.94 8 10.97 2.02 3.9 6.1 5.95 9.05 9.03 2.83 2.9 4.47 6.73 7.25 9.68 1.18 1.41 3.22.92 4.83.93 9.23-.82 18.44-2.38 27.23-5.35 6.08-1.85 10.98 3.59 16.76 4.22 4.83.52 8.08-5.52 13.01-3.82 2.03.2 4.09 1.27 6.13.71 3.19-2.07 4.39-6.44 3.2-9.96-1.67-2.9-5.07-4.31-6.6-7.31-1.82-3.09-2.65-6.96-5.63-9.21-3.14-1.01-6.57-.45-9.7-1.48-2.59-.94-4.48-3.04-6.44-4.87-1.96-.05-3.92-.12-5.87-.14.65-2.89 1.4-5.74 2.2-8.59-2.66-3.48-6.29-6.04-10.05-8.18-6.11-2.96-6.87-10.94-12.67-14.29-4.77-3.66-11.8-1.73-15.22 2.85m-91.15 31.42c-1.72-.76-3.41-1.61-5.25-1.99-2.06.55-3.34 2.4-4.82 3.79-4.11-.44-8.68-1.09-12.38 1.23-4.63 2.95-7.6 7.75-11.82 11.19-2.64 2.33-6.15 4.29-6.98 7.99-1.28 5.13-3.65 9.91-4.84 15.05-1.16 4.5.81 9.63 4.85 11.99 3.86 2.49 8.59 2.5 12.97 3.26 4.05.4 6.51 4.39 10.48 5.03 8.22 1.77 16.31-2.1 24.54-1.11 2.64.17 5.85.85 7.94-1.26 2.59-2.82 4.01-6.5 6.68-9.27 2.68-2.74 5.24-6.23 4.33-10.32-.13-4.37-5.54-8.47-2.46-12.67 1.67-3 3.72-6.08 3.53-9.67.08-9.34-8.77-17.53-18.04-16.97-3.3.07-5.96 2.22-8.73 3.73M482 541.32c-4.68.01-8.21-3.93-12.82-4.25-2.25.81-2.27 3.62-2.87 5.55-10.72 1.19-21.54.11-32.29.38-1.82.01-4.37.63-4.43 2.89-.14 2.7.73 5.35.57 8.05-1.52 2.92-3.73 5.4-5.61 8.08 1.49 1.91 2.73 4.63 5.41 5.04 9.07 1.33 18.03-1.32 26.44-4.44 12.13-4.54 25.11.62 37.53-1.73 5.75-1.41 10.62-5.16 14.92-9.1 3.63-3.42 6.5-8.59 5.05-13.68-.57-2.12-2.97-2.78-4.91-2.7-9.34.18-17.72 5.26-26.99 5.91m42 8.64c-1.65 5.79-1.83 12.19.06 17.96 1.58 4.73 5.99 7.64 10.26 9.74 4.97 2.36 10.12 4.83 15.7 5.14 3.62.35 6.78-1.69 9.9-3.18 3.25 4.33 5.13 9.44 6.79 14.54 1.87 5.04 3.26 10.96 8.02 14.12 3.92 2.82 9.05 2.05 13.41.84 5.98-1.64 10.28-6.41 15.69-9.17 3.7-2.03 7.83-3 11.84-4.23 5.68-1.74 10.11-5.86 14.97-9.07 3.43-2.39 7.33-5.2 8.01-9.65.95-5.58-1-13.11-7.2-14.67-10.12-2.93-21.29-3.34-30.22-9.48-5.38-3.44-10.53-8.51-17.35-8.37-8.61 1.32-14.71 8.09-21.38 13.02-1.95 1.33-4.85 3.22-6.87.97-2.99-3.89-3.56-9.37-7.51-12.56-4.05-2.91-9.33-3.25-14.14-3.05-4.34.15-8.75 2.75-9.98 7.1m-345.15 22.92c-.44 5.09.87 10.07 1.42 15.09-3.42 3.69-7.9 6.35-10.67 10.63-2.92 4.41-5.3 10.01-3.58 15.33.95 3.77 5.14 6.14 8.67 6.22 4.99-5.05 6.71-12.72 12.77-16.78 2.14-1.65 4.6-3.03 6.18-5.28.49-3.2-2.79-5.89-1.65-9.06.9-3.28 2.49-7.18.13-10.22-3.05-4.18-8.59-4.86-13.27-5.93m305.62 7.89c-4.33.95-8.82 1.81-12.68 4.07-3.43 1.96-3.97 7-1.36 9.85 2.83 3.13 7.85 2.2 10.9 5 1.54 4.51-.51 10.94 3.99 13.99 6.27 2.36 13.3-.21 18.6-3.79 4.42-3.19 9.03-7.84 8.74-13.71-.66-4.61-5.43-6.68-8.84-9.05-5.84-3.45-12.11-8.53-19.35-6.36m154.15 29.45c-1.64 10.43 2.39 21.84 10.95 28.25 2.19 2.14 5.61 3.53 6.62 6.58-.99 5.97-3.75 11.42-6.02 16.98-1.82 4.95-7.14 6.94-10.49 10.64-7.03 7.08-9.46 18.98-4.18 27.75 3.07 5.56 9.83 7.59 13.14 12.95 2 3.47 3.29 7.29 5.1 10.87 5.51 10.36 12.28 20.33 15.04 31.9 2.31 9.9 2.45 20.16 4.85 30.05 1.33 5.5 4.55 10.79 9.61 13.58 6.14 3.54 13.54 3.35 19.99 6.09 4.25 1.68 8.17 4.36 12.75 5.16 3.11.17 5.81-1.98 7.68-4.27 3.91-5.14 6.08-11.42 7.03-17.76.77-4.77 1.36-9.93 4.5-13.83 5.21-6.21 13.18-9.39 18.08-15.91 3.58-4.48 5.02-10.74 10.1-13.94 5.07-2.71 11.17-.34 16.4-2.49 3.14-1.32 5.87-3.42 8.45-5.59 7.98-6.99 15.72-14.23 22.96-21.98 5.05-5.61 12.6-8.91 16.06-15.91 2.4-4.35 1.58-10.91-3.05-13.42-5.29-2.15-11.68-1.21-16.38-4.88-3.22-2.5-6.57-4.87-10.28-6.6-1.5-5.44-2.51-13.29-8.95-14.92-4.46-1.25-7.79 2.42-11.02 4.78-1.78-9.09-.94-20.44-9.2-26.59-14-9.18-30.64-12.87-46.55-17.27-11.12-2.35-22.38-6.26-33.85-4.51-8.73 0-15.66-6.15-23.26-9.57-6.08-2.78-12.98-4.54-19.66-3.34-3.49.63-5.94 3.8-6.42 7.2m-92.67 2.77c-3.37 2.96-7.2 5.52-9.86 9.2-2.18 2.97-.05 7.49 3.21 8.63 2.63.18 4.97-1.3 7.37-2.14 4.94-2.11 10.41-1.56 15.64-2.02.26-4.43.26-8.95-.93-13.25-.87-3.16-4.28-4.93-7.37-4.97-3.22.26-5.67 2.62-8.06 4.55m-53.44 31.65c-12.7 2.62-24.92 8.59-33.97 18-10.42 10.97-18.2 25.12-19.28 40.41-.28 6.66-.49 13.42.76 20.01 2.77 12.88 8.98 25.19 18.6 34.32 20.61 21.51 56.41 25.41 81.58 9.76 17.65-10.58 29.86-29.63 31.93-50.13 1.14-14.4-1.76-29.37-9.49-41.71-13.71-23.7-43.52-36.2-70.13-30.66"/>
  <text xml:space="preserve" style="font-style:normal;font-variant:normal;font-weight:700;font-stretch:normal;font-size:72px;line-height:1.25;font-family:sans-serif;-inkscape-font-specification:&quot;sans-serif, Bold&quot;;font-variant-ligatures:normal;font-variant-caps:normal;font-variant-numeric:normal;font-variant-east-asian:normal;fill:#ffff28;fill-opacity:1;stroke:none;stroke-width:.75;filter:url(#a)" x="212.46" y="925.521"><tspan x="212.46" y="925.521">PEARL HARBOR</tspan></text>
  <text xml:space="preserve" style="font-style:normal;font-variant:normal;font-weight:700;font-stretch:normal;font-size:72px;line-height:1.25;font-family:sans-serif;-inkscape-font-specification:&quot;sans-serif, Bold&quot;;font-variant-ligatures:normal;font-variant-caps:normal;font-variant-numeric:normal;font-variant-east-asian:normal;opacity:.999;fill:#ffff28;fill-opacity:1;stroke:none;stroke-width:.75" x="377.316" y="989.765"><tspan x="359.316" y="989.765" style="font-style:normal;font-variant:normal;font-weight:700;font-stretch:normal;font-size:72px;font-family:sans-serif;-inkscape-font-specification:&quot;sans-serif, Bold&quot;;font-variant-ligatures:normal;font-variant-caps:normal;font-variant-numeric:normal;font-variant-east-asian:normal;fill:#ffff28;fill-opacity:1;stroke-width:.75">HAWAII</tspan></text>
  <g style="font-style:normal;font-variant:normal;font-weight:700;font-stretch:normal;font-size:72px;line-height:1.25;font-family:Arial;-inkscape-font-specification:&quot;Arial, Bold&quot;;font-variant-ligatures:normal;font-variant-caps:normal;font-variant-numeric:normal;font-variant-east-asian:normal;fill:#ffff28;fill-opacity:1;stroke:none;stroke-width:.75">
    <path d="m44.128 694.13.996-10.323 32.475 3.134q6.368.615 9.69 2.065 4.334 1.937 6.682 6.155 2.312 4.214 1.688 10.688-.733 7.594-5.362 11.28-4.665 3.682-12.892 2.923l-.177-9.871q4.426.25 6.354-.694 2.926-1.413 3.257-4.842.334-3.465-1.487-5.088-1.856-1.628-8.085-2.229zm28.127-19.404q-7.719-1.563-12.489-4.933-3.51-2.504-5.976-6.088-2.46-3.62-3.223-7.468-1.042-5.126.207-11.293 2.261-11.164 10.54-16.446 8.287-5.317 20.623-2.818 12.232 2.477 17.81 10.53 5.545 8.046 3.291 19.175-2.282 11.267-10.485 16.529-8.239 5.254-20.298 2.812m1.783-10.58q8.58 1.738 13.828-1.324 5.213-3.07 6.448-9.168 1.235-6.099-2.352-10.879-3.615-4.821-12.402-6.6-8.683-1.76-13.73 1.2-5.04 2.925-6.317 9.23t2.282 11.045q3.526 4.731 12.243 6.497m35.752-40.763-49.5-14.354 2.898-9.994 49.5 14.353zm5.494-19.703-48.22-18.2 3.576-9.472 39.65-7.581-32.201-12.154 3.414-9.045 48.219 18.2-3.688 9.768-38.78 7.571 31.444 11.868zm24.257-58.644-38.237-19.273-6.884 13.656-7.785-3.924 18.434-36.574 7.786 3.925-6.868 13.624 38.238 19.274zm32.153-55.26-35.074-24.565-8.773 12.527-7.141-5.002 23.495-33.548 7.142 5.002-8.753 12.498 35.073 24.564zm27.838-36.489-16.35-14.254-34.905-5.382 8.016-9.196 23.34 4.256-7.562-22.356 7.878-9.037 10.1 33.943 16.298 14.208zm23.111-25.631-34.787-38.028 12.322-11.272q7.003-6.407 9.653-7.782 4.051-2.134 8.89-1.271 4.815.836 8.968 5.376 3.203 3.501 4.115 7.05t.198 6.728q-.711 3.129-2.331 5.42-2.251 3.06-7.465 7.83l-5.007 4.58 13.122 14.345zm-21.224-38.62 9.872 10.792 4.202-3.844q4.54-4.153 5.524-6.15.985-1.996.678-4.05-.28-2.078-1.823-3.764-1.898-2.076-4.352-2.31-2.453-.233-4.629 1.139-1.612.998-5.762 4.794zm57.044 6.529-29.97-41.93 8.466-6.05 11.796 16.503 16.589-11.857-11.796-16.503 8.466-6.052 29.97 41.93-8.466 6.051-13.104-18.333-16.59 11.857 13.105 18.333zm28.841-51.296q-3.689-6.957-4.11-12.782-.292-4.302.914-8.483 1.237-4.197 3.728-7.229 3.3-4.057 8.86-7.004 10.064-5.336 19.4-2.287 9.367 3.033 15.262 14.153 5.845 11.027 3.16 20.448-2.701 9.39-12.734 14.709-10.157 5.385-19.43 2.381-9.287-3.034-15.05-13.906m9.309-5.332q4.1 7.734 9.796 9.847 5.68 2.082 11.178-.832 5.498-2.915 6.916-8.72 1.434-5.853-2.765-13.774-4.15-7.827-9.64-9.851-5.458-2.04-11.142.973-5.685 3.013-7.089 8.771-1.42 5.727 2.746 13.586m43.709-22.005q-2.673-7.408-2.272-13.234.317-4.3 2.1-8.27 1.814-3.98 4.707-6.632 3.838-3.553 9.758-5.689 10.714-3.866 19.528.466 8.847 4.32 13.12 16.158 4.236 11.74.252 20.69-3.996 8.917-14.677 12.771-10.814 3.902-19.57-.375-8.77-4.311-12.946-15.885m9.966-3.97q2.972 8.234 8.314 11.127 5.33 2.86 11.184.749 5.853-2.113 8.074-7.66 2.243-5.594-.8-14.027-3.008-8.333-8.158-11.109-5.117-2.788-11.169-.604t-8.252 7.687q-2.212 5.47.807 13.836m53.755 8.958-10.626-50.431 9.908-2.088 27.736 29.33-7.096-33.679 9.46-1.993 10.626 50.432-10.217 2.153-27.26-28.604 6.93 32.887zm78.19-12.43-12.53-51.485 10.652-.047 7.925 35.369 9.267-35.444 12.374-.054 9.193 35.96 7.753-36.034 10.476-.046-12.29 51.594-11.04.048-10.433-38.486-10.062 38.576zm102.666 7.832-11.198-1.663-2.731-12.24-20.379-3.026-5.927 10.955-10.92-1.621 27.427-48.032 10.884 1.616zm-15.958-22.984-4.215-19.96-9.695 17.895zm21.376 24.522 14.39-49.49 21.031 6.115q7.933 2.307 11.12 4.698 3.228 2.366 4.398 6.404t-.107 8.427q-1.62 5.57-5.955 8.263-4.324 2.66-11.115 1.711 2.692 2.833 4.127 5.703 1.469 2.88 3.369 9.694l3.235 11.412-11.95-3.475-4.093-12.87q-2.17-6.891-3.156-8.789-.976-1.931-2.406-2.933-1.42-1.035-4.863-2.036l-2.025-.59-6.007 20.66zm18.297-25.655 7.393 2.15q7.19 2.09 9.156 2.003t3.41-1.278q1.445-1.19 2.093-3.419.726-2.498-.182-4.41-.865-1.935-3.178-3.047-1.166-.522-7.243-2.29l-7.798-2.267zm31.522 40.902 20.874-47.122 9.258 4.1 5.346 40.012 13.94-31.468 8.84 3.915-20.874 47.123-9.547-4.229-5.385-39.144-13.612 30.729zm46.647 21.963 25.098-45.015 9.089 5.067-25.098 45.016zm17.984 9.761 29.051-42.57 8.363 5.707-1.977 40.319 19.4-28.43 7.986 5.45-29.051 42.571-8.625-5.885 1.783-39.473-18.944 27.761zm73.063 31.682 5.803-6.46 16.687 14.986-13.719 15.275q-4.547.17-10.797-2.183-6.2-2.356-10.935-6.608-6.016-5.403-8.233-11.931-2.194-6.554-.239-13.256 1.98-6.729 6.936-12.248 5.38-5.99 12.072-8.39t13.763-.54q5.403 1.404 10.895 6.337 7.14 6.413 8.441 13.015 1.35 6.6-2.244 12.916l-8.982-5.467q1.726-3.553.933-7.195-.743-3.645-4.091-6.652-5.074-4.557-10.972-4.041-5.87.539-11.556 6.868-6.13 6.827-6.174 12.978-.02 6.126 4.897 10.542 2.433 2.185 5.71 3.428 3.329 1.24 6.303 1.454l4.37-4.865zm59.265 65.355 3.68 9.925q-8.081 3.357-14.654 1.616-6.523-1.735-11.624-8.279-6.311-8.096-4.857-17.61 1.482-9.536 11.076-17.014 10.148-7.91 19.834-7.036 9.714.853 16.371 9.393 5.814 7.459 5.036 15.553-.445 4.805-4.244 9.995l-8.274-6.61q2.6-3.186 2.635-6.914.058-3.7-2.492-6.972-3.523-4.52-8.972-4.819-5.427-.271-12.692 5.391-7.708 6.009-8.818 11.332t2.347 9.76q2.55 3.272 6.467 4.007 3.917.736 9.181-1.718m-3.829 27.117 44.049-26.758 19.84 32.66-7.451 4.527-14.438-23.767-9.765 5.932 13.433 22.115-7.421 4.508-13.434-22.114-11.989 7.282 14.95 24.609-7.422 4.508zm24.564 41.421 46.8-21.586 4.241 9.194-22.42 33.57 31.255-14.415 4.049 8.78-46.801 21.585-4.373-9.482 21.817-32.943-30.52 14.076zm24.723 58.448 40.579-13.674-4.884-14.492 8.263-2.784 13.078 38.812-8.262 2.784-4.872-14.459-40.579 13.674zm9.932 30.839 50.253-11.442 8.484 37.262-8.502 1.935-6.173-27.114-11.14 2.536 5.743 25.23-8.466 1.927-5.745-25.23-13.677 3.115 6.392 28.074-8.467 1.928zm10.212 46.987 51.198-5.917 2.515 21.757q.949 8.207-.02 12.07-.93 3.895-4.199 6.538t-7.81 3.167q-5.761.666-9.925-2.285-4.128-2.956-5.885-9.583-1.568 3.579-3.658 6.014-2.086 2.471-7.63 6.863l-9.265 7.406-1.43-12.363 10.278-8.761q5.511-4.672 6.878-6.316 1.402-1.649 1.771-3.355.404-1.71-.008-5.272l-.242-2.095-21.373 2.47zm30.74 6.923.885 7.648q.86 7.439 1.702 9.217.843 1.779 2.5 2.649t3.963.603q2.585-.298 3.995-1.877 1.449-1.548 1.577-4.11.03-1.278-.697-7.564l-.933-8.068z" style="font-style:normal;font-variant:normal;font-weight:700;font-stretch:normal;font-size:72px;font-family:Arial;-inkscape-font-specification:&quot;Arial, Bold&quot;;font-variant-ligatures:normal;font-variant-caps:normal;font-variant-numeric:normal;font-variant-east-asian:normal;fill:#ffff28;fill-opacity:1;stroke-width:.75" aria-label="JOINT TYPHOON WARNING CENTER"/>
  </g>
  <g style="font-style:normal;font-weight:400;font-size:30px;line-height:1.25;font-family:sans-serif;fill:#000;fill-opacity:1;stroke:none;stroke-width:.75">
    <path d="m904.906 858.111 8.254 4.176-11.2 22.14q-2.667 5.27-3.15 6.988-.74 2.777.465 5.312 1.246 2.522 4.703 4.271 3.514 1.777 6.018 1.258 2.518-.547 3.938-2.455t3.875-6.76l11.44-22.615 8.255 4.175-10.862 21.472q-3.724 7.362-5.931 10.063-2.207 2.7-5.077 3.875-2.843 1.189-6.49.92-3.632-.297-8.484-2.751-5.856-2.962-8.218-5.838-2.32-2.89-2.99-5.926-.657-3.064-.016-5.716.969-3.923 4.439-10.782zm-41.226 80.35 7.588 4.917q-2.184 4.052-1.574 7.252.634 3.219 3.936 5.845 3.498 2.78 6.426 2.714 2.972-.072 4.548-2.054 1.011-1.272.953-2.755-.014-1.489-1.348-3.627-.922-1.452-4.552-6.175-4.674-6.072-5.35-10.043-.948-5.585 2.436-9.841 2.178-2.74 5.606-3.887 3.471-1.152 7.374-.085 3.927 1.086 8.06 4.373 6.751 5.368 7.798 11.031 1.071 5.683-2.687 10.76l-7.492-5.44q1.733-3.132 1.145-5.556-.544-2.43-3.602-4.86-3.155-2.51-5.972-2.633-1.81-.082-2.92 1.312-1.01 1.272-.654 3.033.456 2.238 4.747 7.687 4.292 5.448 5.741 8.797 1.494 3.344 1.065 6.795-.385 3.447-3.089 6.847-2.45 3.082-6.302 4.411-3.852 1.33-8.033.16-4.161-1.193-8.833-4.907-6.8-5.407-7.955-11.436-1.136-6.053 2.94-12.634zm-7.823 87.806-7.215-7.014 4.385-10.25-13.132-12.763-9.964 4.826-7.037-6.84 44.727-20.413 7.014 6.817zm.42-24.868 7.323-16.59-16.286 7.878zm-69.398 48.59 32.374-32.414 22.222 22.193-5.477 5.484-15.677-15.657-7.663 7.672 13.532 13.515-5.476 5.483-13.532-13.515-13.758 13.776z" style="font-style:normal;font-variant:normal;font-weight:700;font-stretch:normal;font-size:64px;font-family:Arial;-inkscape-font-specification:&quot;Arial, Bold&quot;;font-variant-ligatures:normal;font-variant-caps:normal;font-variant-numeric:normal;font-variant-east-asian:normal;opacity:.997;fill:#ffff28;fill-opacity:1;stroke-width:.75" aria-label="U SA F"/>
  </g>
  <g style="font-style:normal;font-weight:400;font-size:30px;line-height:1.25;font-family:sans-serif;fill:#000;fill-opacity:1;stroke:none;stroke-width:.75">
    <path d="m189.184 747.784 9.049 1.918-5.147 24.273q-1.225 5.778-1.252 7.561-.003 2.875 1.811 5.016 1.851 2.118 5.642 2.922 3.852.816 6.14-.328 2.293-1.175 3.176-3.383.884-2.209 2.012-7.528l5.257-24.792 9.049 1.918-4.992 23.54q-1.711 8.07-3.151 11.247t-3.914 5.048q-2.442 1.877-6.036 2.553-3.586.645-8.906-.483-6.42-1.361-9.44-3.535-2.984-2.198-4.411-4.96-1.42-2.793-1.481-5.521-.07-4.04 1.525-11.56zm-16.024 94.84 9.03.489q.121 4.602 2.242 7.074 2.152 2.476 6.323 3.11 4.418.673 6.924-.843 2.542-1.541 2.923-4.044.244-1.606-.544-2.864-.753-1.284-2.974-2.475-1.522-.8-7.022-3.091-7.075-2.941-9.637-6.05-3.602-4.372-2.785-9.748.527-3.46 2.929-6.16 2.438-2.728 6.354-3.744 3.947-1.012 9.168-.218 8.527 1.297 12.253 5.689 3.756 4.396 3.023 10.67l-9.205-.99q-.056-3.58-1.773-5.39-1.68-1.836-5.542-2.424-3.985-.606-6.49.689-1.611.83-1.88 2.59-.244 1.607.942 2.956 1.509 1.716 7.943 4.306 6.433 2.591 9.357 4.774 2.96 2.157 4.305 5.365 1.38 3.181.728 7.475-.593 3.893-3.272 6.963-2.68 3.07-6.888 4.136-4.203 1.036-10.104.138-8.59-1.306-12.59-5.96-3.998-4.686-3.738-12.423m4.867 81.864-3.489-45.68 8.974-.685 21.025 29.078-2.329-30.505 8.569-.654 3.488 45.68-9.254.706-20.69-28.382 2.274 29.788z" style="font-style:normal;font-variant:normal;font-weight:700;font-stretch:normal;font-size:64px;font-family:Arial;-inkscape-font-specification:&quot;Arial, Bold&quot;;font-variant-ligatures:normal;font-variant-caps:normal;font-variant-numeric:normal;font-variant-east-asian:normal;fill:#ffff28;fill-opacity:1;stroke-width:.75" transform="rotate(-35.213 307.425 984.547)" aria-label="U S N"/>
  </g>
  <path d="M350.9 484.93c2.17-3.19 6.66-5.05 10.23-3.03 5.02 2.59 5.72 8.82 9.27 12.73 3.3 3.15 7.93 4.11 11.79 6.35-.68 3.92-.88 7.91-1.11 11.88 4.16 1.29 8.4 2.52 11.97 5.12 2.61 1.97 5.88 2.45 9.07 2.44 2.99-.32 3.64 3.43 5.09 5.32 1.45 3.67 4.02 6.61 7.34 8.72.01 1.71.21 3.42.16 5.14-3.23-.01-6.45-1.77-9.65-.6-3.5 1.17-6.68 3.08-10.05 4.57-3.39-2.09-6.84-4.71-11.01-4.72-6.91-.55-13.37 2.35-20.05 3.54-4.63.84-9.23 1.94-13.95 2.06-1.83-2.03-3.21-4.38-4.75-6.62-2.3-3.36-5.81-5.53-8.76-8.23-3.45-3.21-4.29-8.17-7.33-11.67-2.49-2.98-5.8-5.06-8.56-7.74 6.8-.94 13.72-1.49 20.29-3.6 1.91-.7 4.22-1.62 4.77-3.81 1.96-5.88 1.4-12.67 5.24-17.85m-91.61 33.9c1.77-1.83 3.22-4.16 5.66-5.16 6.66-.15 14 3.82 15.54 10.7 1.27 5.52-3.75 9.58-4.95 14.61.24 4.25 3.53 7.74 3.44 12.08-.06 2.33-1.98 3.94-3.32 5.64-2.71 2.97-4.28 6.71-6.09 10.25-5.16-.55-10.48-1.35-15.57.04-4.2 1.03-8.66 2.25-12.94.89-3.36-.95-5.67-3.88-8.9-5.09-4.19-1.03-8.76-.38-12.72-2.33-4.28-2.08-6.35-7.89-4.03-12.13 2.06-4.2 4.06-8.52 4.56-13.23 3.94-3.08 7.52-6.57 10.87-10.28 2.13-2.2 4.17-4.82 7.25-5.69 3.6-1.27 7.41-.26 11.01.42 1.14-1.15 2.25-2.32 3.32-3.52 2.32.86 4.6 1.81 6.87 2.8M482 544.59c8.61-.56 16.47-4.78 25.03-5.61 1.72-.29 2.89 1.09 4 2.16-1.53 7.76-8.91 12.21-15.5 15.34-9.08 3.97-19.04.39-28.51.78-9.83-.43-18.42 5.36-27.98 6.54-3.51.41-7.06.15-10.55-.29 1.48-2.8 3.86-5.05 5.06-7.99.73-2.94-.19-5.94-.6-8.85 10.36.09 20.72.21 31.07-.17 1.51-.11 3.09-.28 4.41-1.09.75-1.7 1.24-3.5 1.78-5.27 3.57 2.2 7.4 4.7 11.79 4.45m51.52 2.08c3.78-.52 7.94-.57 11.31 1.52 4.86 3.7 5.13 11.41 10.9 14.16 4.63 1.67 8.76-1.72 12.09-4.48 4.97-3.88 9.91-8.46 16.25-9.81 6.71.38 11.24 6.07 16.85 9.05 9.44 5.62 20.75 5.79 31 9 3.72 2.88 3.84 8.91 1.92 12.87-4.18 4.93-10.12 7.9-15.48 11.35-6.24 4.06-14.19 4.38-20.22 8.84-4.85 3.4-10.09 6.86-16.14 7.4-4.17.53-7.83-2.7-9.18-6.42-2.42-6.52-3.81-13.5-7.52-19.48-1.08-1.7-2.28-3.57-4.29-4.24-4.92.9-9.79 3.74-14.89 2.01-5.81-1.75-11.86-4.01-16.2-8.42-4.38-4.52-3.71-11.35-3.13-17.08.27-3.46 3.36-6.06 6.73-6.27m-352.18 30.09c3.27 1.2 6.49 2.74 8.99 5.25-.57 3.31-1.95 6.47-2.2 9.84.36 1.64 1.52 2.93 2.45 4.28-2.6 2.57-5.73 4.53-8.25 7.19-4.05 3.87-6.24 9.14-9.4 13.68-2.76-2.1-5.18-5.34-4.26-9.01.98-7.49 7.65-11.9 12.95-16.38 4.42-4 .12-10.06-.28-14.85m289.62 13.21c5.24-4.41 12.36-6.08 19.08-5.9 6.61 1.24 11.58 6.28 16.91 10.04 2.5 1.39 2.04 4.56.69 6.61-4.34 7.07-13.03 11.59-21.34 10.11-.81-4.43-.8-9.15-2.8-13.26-4.04-2.76-9.13-3.89-12.54-7.6m171.32 19.25c1.63-3.72 6.31-3.7 9.73-3.14 11.58.98 20.09 10.11 31.04 13 4.94 1.31 9.98-.57 14.96.27 8 1.19 15.99 2.65 23.76 4.96 11.63 2.86 23.23 6.04 34.25 10.79 5.13 2.37 10.87 4.86 13.7 10.08 3 5.52 2.3 12.01 3.81 17.94.56 2.92 3.47 4.82 6.33 4.91 1.87-.63 2.91-2.55 4.38-3.8 1.37-1.83 4.15-1.36 5.9-.35 2.66 4.48 3.41 9.74 5.05 14.62 3.27.07 6.12 1.66 8.37 3.96 5.58 5.44 13.84 5.32 20.93 7.23.04 2.66.23 5.47-1 7.93-1.8 3.65-5.11 6.17-8.09 8.81-11.19 10.13-20.95 21.87-33.28 30.71-3.13 2.59-7.14 3.82-11.16 3.9-3.6.4-7.71-.35-10.7 2.16-6.1 4.57-7.73 12.71-13.42 17.65-6.04 5.57-14.92 8.97-17.65 17.39-1.97 6.84-2.44 14.11-5.41 20.67-1.58 3.53-3.75 7.5-7.77 8.6-5.17-1.32-9.67-4.48-14.88-5.72-6.39-1.9-13.83-2.18-18.84-7.11-3.84-3.54-5.38-8.76-6.08-13.77-1.47-10.77-2.19-21.79-5.95-32.08-3.76-9.78-8.98-18.9-13.98-28.07-2.6-4.67-4.16-10.14-8.33-13.73-3.75-3.49-8.64-6.16-10.72-11.09-2.7-6.67-.45-14.4 3.88-19.84 3.24-4.15 8.7-6.02 11.43-10.62 2.4-4.24 3.83-8.93 5.51-13.48.97-3.07 2.68-6.72.89-9.79-4.1-5.26-10.85-8.06-13.96-14.15-2.89-5.74-4.36-12.52-2.7-18.84m-97.22 8.9c3.12-2.86 6.58-5.44 10.54-6.99 3.03 3.39 2.85 8.02 3.12 12.25-2.89.27-5.8.33-8.66.8-3.93.61-7.55 2.88-11.63 2.3 1.26-3.43 3.95-6 6.63-8.36" fill="#057e49"/>
</svg>
